<?xml version="1.0" standalone="no"?>
<!DOCTYPE svg PUBLIC "-//W3C//DTD SVG 20010904//EN"
 "http://www.w3.org/TR/2001/REC-SVG-20010904/DTD/svg10.dtd">
<svg version="1.0" xmlns="http://www.w3.org/2000/svg"
 width="16.000000pt" height="16.000000pt" viewBox="0 0 16.000000 16.000000"
 preserveAspectRatio="xMidYMid meet">
<metadata>
Created by potrace 1.11, written by Peter Selinger 2001-2013
</metadata>
<g transform="translate(0.000000,16.000000) scale(0.002286,-0.002286)"
fill="#000000" stroke="none">
<path d="M4639 6444 c-20 -12 -51 -47 -69 -76 -18 -29 -84 -136 -145 -238 -62
-102 -177 -291 -255 -420 -79 -129 -161 -264 -182 -300 -21 -36 -86 -141 -143
-235 -57 -93 -128 -210 -158 -260 -30 -49 -118 -196 -197 -325 -184 -301 -218
-358 -275 -452 -26 -43 -50 -78 -53 -78 -4 0 -153 239 -332 531 -179 292 -345
564 -370 604 -25 40 -62 101 -83 135 l-38 62 -142 68 c-78 37 -198 95 -267
128 -69 33 -177 84 -240 115 -63 30 -187 90 -275 132 -88 43 -205 99 -260 125
-55 26 -167 80 -250 120 -599 289 -735 353 -772 364 -29 9 -85 -15 -111 -49
l-22 -28 0 -2369 0 -2370 22 -31 c20 -28 188 -115 523 -272 39 -18 156 -74
260 -125 105 -51 240 -116 300 -145 61 -29 171 -82 245 -118 74 -35 194 -93
265 -127 72 -34 195 -94 275 -132 240 -116 311 -148 330 -148 38 0 80 23 100
55 21 34 21 39 21 1069 0 570 4 1036 8 1036 5 0 75 -32 157 -71 82 -39 199
-95 259 -124 115 -55 264 -127 599 -289 109 -53 200 -96 201 -96 2 0 110 -52
241 -116 132 -64 273 -132 314 -151 41 -20 149 -72 240 -115 91 -44 197 -95
235 -113 125 -58 256 -121 430 -205 94 -45 211 -101 260 -125 102 -49 285
-137 520 -250 322 -155 431 -208 500 -240 39 -18 147 -70 240 -115 288 -139
312 -150 335 -150 36 0 85 28 103 59 16 27 17 186 17 2372 0 1525 -4 2356 -10
2380 -17 60 -29 68 -355 224 -77 37 -205 99 -285 137 -80 39 -185 89 -235 113
-49 23 -175 84 -280 135 -104 51 -230 111 -280 135 -49 23 -151 72 -225 108
-550 266 -575 277 -622 275 -18 0 -50 -11 -69 -24z"/>
</g>
</svg>
